PathFileType  4	(X/Y/Z) C:\Users\antoi\Documents\MyRepositories\mobilecap\ResultsAnalysis
DataRate	CameraRate	NumFrames	NumMarkers	Units	OrigDataRate	OrigDataStartFrame	OrigNumFrames
100.0	100.0	4	55	mm	100.0	293	781
Frame#	Time	r_knee			r_shank_antsup			r_ankle			r_calc			r_5meta			r_toe			L_knee			L_shank_antsup			L_ankle			L_calc			L_5meta			L_toe			r_mknee			r_mankle			L_mknee			L_mankle			r_sh2			r_sh3			r_sh4			L_sh2			L_sh3			r_thigh1			r_thigh2			r_thigh3			r_thigh4			r_thigh5			L_thigh1			L_thigh2			L_thigh3			L_thigh4			r.ASIS			r.PSIS			L.ASIS			L.PSIS			C7			R_Shoulder			L_Shoulder			R_Sternum			L_Sternum			R_humerus			R_elbow_med			R_elbow_lat			R_forearm			R_wrist_radius			R_wrist_ulna			L_humerus			L_elbow_med			L_elbow_lat			L_forearm			L_wrist_radius			L_wrist_ulna			R_HJC			L_HJC			R_HJC_reg			L_HJC_reg			
		X1	Y1	Z1	X2	Y2	Z2	X3	Y3	Z3	X4	Y4	Z4	X5	Y5	Z5	X6	Y6	Z6	X7	Y7	Z7	X8	Y8	Z8	X9	Y9	Z9	X10	Y10	Z10	X11	Y11	Z11	X12	Y12	Z12	X13	Y13	Z13	X14	Y14	Z14	X15	Y15	Z15	X16	Y16	Z16	X17	Y17	Z17	X18	Y18	Z18	X19	Y19	Z19	X20	Y20	Z20	X21	Y21	Z21	X22	Y22	Z22	X23	Y23	Z23	X24	Y24	Z24	X25	Y25	Z25	X26	Y26	Z26	X27	Y27	Z27	X28	Y28	Z28	X29	Y29	Z29	X30	Y30	Z30	X31	Y31	Z31	X32	Y32	Z32	X33	Y33	Z33	X34	Y34	Z34	X35	Y35	Z35	X36	Y36	Z36	X37	Y37	Z37	X38	Y38	Z38	X39	Y39	Z39	X40	Y40	Z40	X41	Y41	Z41	X42	Y42	Z42	X43	Y43	Z43	X44	Y44	Z44	X45	Y45	Z45	X46	Y46	Z46	X47	Y47	Z47	X48	Y48	Z48	X49	Y49	Z49	X50	Y50	Z50	X51	Y51	Z51	X52	Y52	Z52	X53	Y53	Z53	X54	Y54	Z54	X55	Y55	Z55	

293	2.92000000	-259.85337	471.83752	-727.31682	-255.03521	400.12448	-699.68194	-273.47764	92.74366	-719.26103	-339.93353	52.76415	-757.63786	-170.34842	44.07921	-687.14386	-128.04295	62.89902	-743.46785	-282.00666	457.24068	-1059.46528	-263.67500	402.80947	-1071.81647	-283.35633	92.03393	-1080.60816	-348.77845	55.44564	-1032.76464	-191.74553	40.18780	-1116.07992	-139.24821	62.30374	-1063.90573	-254.41654	454.26269	-843.41832	-264.48325	94.35416	-799.91526	-256.63756	443.25312	-955.64156	-264.11904	97.50739	-998.38784	-256.57728	290.18857	-690.31287	-329.11691	400.93346	-714.70112	-335.79340	282.60098	-708.57598	-351.85989	408.40899	-1084.70716	-344.21995	287.66785	-1098.31195	-166.50967	772.70911	-753.39710	-170.14691	661.83227	-738.48665	-220.16301	646.93621	-696.77248	-262.64589	783.78924	-699.38592	-271.99201	665.65912	-700.83212	-175.48626	732.91977	-1064.70576	-188.52019	595.07689	-1062.85594	-289.84125	743.34977	-1091.47330	-294.28873	602.03170	-1082.66245	-170.57457	920.69508	-771.21108	-350.55233	935.64930	-855.74929	-157.35079	901.28032	-1030.11447	-347.87740	923.24175	-962.97929	-331.61940	1388.54031	-907.00424	-266.99000	1349.29170	-748.31570	-260.63235	1346.21221	-1072.35405	-202.23789	1324.76402	-886.70281	-203.61927	1324.55545	-929.95275	-241.99691	1109.89174	-668.48078	-274.69225	1004.97582	-722.12698	-270.08626	1025.35176	-653.29709	-217.08221	919.63485	-620.95938	-189.49622	801.77872	-607.71732	-232.32080	794.92866	-603.82160	-213.86155	1218.58601	-1119.88164	-238.81306	1007.67133	-1073.10716	-243.41280	1014.17861	-1132.94351	-196.76972	923.46568	-1172.29399	-172.92648	798.38441	-1174.66258	-208.73521	788.00554	-1174.88192	-236.11813	844.28011	-798.05276	-223.43337	831.62921	-997.54232	-232.28224	841.25214	-800.55889	-228.03214	821.53656	-970.94779	
294	2.93000000	-259.83036	471.81895	-727.28964	-255.04975	400.08492	-699.66961	-273.46423	92.72048	-719.24746	-339.94942	52.77596	-757.60877	-170.33942	44.06079	-687.11706	-128.04984	62.89389	-743.46368	-282.00547	457.25447	-1059.46503	-263.67203	402.80716	-1071.81177	-283.35732	92.04071	-1080.59622	-348.79243	55.43693	-1032.75316	-191.75668	40.21316	-1116.09281	-139.25125	62.31038	-1063.89836	-254.32435	454.27571	-843.40805	-264.49928	94.36113	-799.90845	-256.62216	443.24988	-955.61134	-264.12610	97.51029	-998.36409	-256.49768	290.09297	-690.33543	-329.11596	400.93758	-714.70211	-335.81389	282.61749	-708.57670	-351.85799	408.42532	-1084.70369	-344.21621	287.68901	-1098.31049	-166.48959	772.70725	-753.40316	-170.15268	661.83026	-738.42877	-220.17603	646.93804	-696.79343	-262.56476	783.87956	-699.37682	-271.96694	665.67953	-700.85780	-175.50696	732.87673	-1064.72826	-188.51275	595.08717	-1062.85241	-289.82582	743.35608	-1091.47811	-294.28995	602.03390	-1082.66436	-170.59031	920.66992	-771.23788	-350.49478	935.64446	-855.75474	-157.33102	901.27089	-1030.11771	-347.79802	923.25588	-962.97231	-331.64175	1388.53091	-907.06714	-266.97075	1349.28388	-748.33161	-260.61881	1346.18152	-1072.47341	-202.20303	1324.76176	-886.80367	-203.56151	1324.54357	-930.00538	-241.96075	1109.92880	-668.52842	-274.59117	1005.07966	-722.07961	-270.01121	1025.39227	-653.34382	-217.02538	919.68756	-620.90973	-189.41624	801.81633	-607.68927	-232.22237	795.04793	-603.74975	-213.83964	1218.55021	-1119.89800	-238.81805	1007.67481	-1073.11073	-243.41965	1014.15273	-1132.96022	-196.80016	923.43765	-1172.28521	-172.99996	798.27842	-1174.52761	-208.80303	787.97930	-1174.86573	-236.09978	844.26160	-798.06530	-223.40508	831.62631	-997.55522	-232.28777	841.22525	-800.60694	-228.00340	821.53902	-970.98381	
295	2.94000000	-259.80401	471.79321	-727.23920	-255.03612	400.06918	-699.64870	-273.49496	92.68343	-719.27039	-339.95957	52.79467	-757.58144	-170.33081	44.04409	-687.09357	-128.08327	62.85969	-743.43962	-281.99730	457.26485	-1059.46403	-263.66334	402.80960	-1071.81047	-283.37060	92.04279	-1080.56236	-348.77917	55.45830	-1032.75537	-191.77131	40.25065	-1116.11100	-139.27231	62.32016	-1063.87895	-254.23970	454.23597	-843.39073	-264.59545	94.40193	-799.85203	-256.65185	443.25173	-955.64921	-264.12954	97.51829	-998.32243	-256.43940	290.02760	-690.35254	-329.11150	400.94108	-714.70881	-335.84267	282.62235	-708.56797	-351.85221	408.42598	-1084.70291	-344.18779	287.68755	-1098.32434	-166.47123	772.71145	-753.39381	-170.13951	661.84940	-738.39603	-220.14497	646.96415	-696.80595	-262.61026	783.82309	-699.39907	-271.95371	665.73632	-700.81086	-175.53140	732.83770	-1064.74476	-188.50552	595.09528	-1062.84738	-289.80954	743.36802	-1091.47179	-294.29033	602.04041	-1082.66404	-170.64710	920.62174	-771.34975	-350.41583	935.64005	-855.76603	-157.31741	901.25741	-1030.11399	-347.88802	923.28975	-963.04070	-331.58833	1388.48861	-907.04696	-266.88984	1349.13324	-748.27529	-260.58581	1346.14038	-1072.53636	-202.16280	1324.77802	-886.87453	-203.51262	1324.51869	-930.03371	-241.91970	1109.99911	-668.60117	-274.54043	1005.19402	-722.01719	-269.92862	1025.44679	-653.37910	-216.93682	919.78783	-620.94632	-189.34271	801.85629	-607.66517	-232.13480	795.12105	-603.72752	-213.82070	1218.48917	-1119.92963	-238.71405	1007.60604	-1073.00864	-243.41224	1014.12647	-1133.01257	-196.83119	923.40585	-1172.27235	-173.07304	798.16432	-1174.36913	-208.86843	787.95374	-1174.85712	-236.13184	844.23112	-798.12466	-223.44144	831.62490	-997.61669	-232.17174	841.20619	-800.62647	-228.15820	821.59803	-970.94200	
296	2.95000000	-259.80632	471.79847	-727.25479	-255.03812	400.06350	-699.66757	-273.51925	92.65011	-719.28350	-339.95353	52.80922	-757.57663	-170.32587	44.04190	-687.08940	-128.08980	62.85000	-743.41582	-281.98444	457.27038	-1059.46047	-263.65159	402.81635	-1071.81131	-283.37793	92.04399	-1080.53804	-348.75397	55.49707	-1032.76684	-191.77116	40.26067	-1116.10679	-139.28860	62.33670	-1063.87219	-254.21744	454.15340	-843.39527	-264.64468	94.42633	-799.82520	-256.67163	443.25348	-955.68405	-264.10405	97.53834	-998.28842	-256.43853	290.03433	-690.34934	-329.10457	400.93894	-714.71733	-335.85058	282.62027	-708.55919	-351.84594	408.41477	-1084.70895	-344.18563	287.67472	-1098.31856	-166.45254	772.71791	-753.38979	-170.09524	661.87371	-738.43905	-220.10396	646.98828	-696.80209	-262.73781	783.64178	-699.44033	-271.95768	665.74625	-700.83890	-175.55657	732.81019	-1064.75795	-188.50155	595.09196	-1062.84782	-289.79809	743.37606	-1091.45873	-294.28595	602.04300	-1082.65738	-170.57275	920.63619	-771.32494	-350.39218	935.58606	-855.76696	-157.29718	901.24993	-1030.12298	-347.87338	923.29181	-963.04088	-331.49873	1388.42710	-907.03405	-266.85287	1349.04871	-748.28247	-260.54882	1346.09336	-1072.62711	-202.11125	1324.80192	-886.92609	-203.48284	1324.50067	-930.08899	-241.84256	1110.05192	-668.63270	-274.50806	1005.28082	-721.97845	-269.86065	1025.48361	-653.46022	-216.86995	919.89668	-620.99240	-189.28805	801.88058	-607.64916	-232.04330	795.16671	-603.69108	-213.80741	1218.39565	-1119.99838	-238.53498	1007.48402	-1072.83670	-243.41378	1014.08928	-1133.02479	-196.87015	923.32495	-1172.19865	-173.18334	798.09031	-1174.32156	-208.93147	787.89579	-1174.82691	-236.07649	844.22393	-798.12234	-223.40271	831.61829	-997.61546	-232.07494	841.11112	-800.63173	-228.07497	821.58831	-970.97903	
